<svg xmlns="http://www.w3.org/2000/svg" width="48" height="60" viewBox="0 0 48 60">
    <defs>
        <style>
            .cls-3{stroke-width:2px;fill:none;stroke:#2d3cc4}.cls-5{stroke:none}
        </style>
    </defs>
    <g id="file" transform="translate(-1049 -1350)">
        <g id="Rectangle_1744" data-name="Rectangle 1744" transform="translate(1049 1358)" style="stroke-width:2px;stroke:#222;fill:#fff">
            <rect class="cls-5" width="40" height="52" rx="4"/>
            <rect x="1" y="1" width="38" height="50" rx="3" style="fill:none"/>
        </g>    
        <g id="Path_7221" data-name="Path 7221" style="fill:#fff">
            <path class="cls-5" d="M36 51H4c-1.654 0-3-1.346-3-3V4c0-1.654 1.346-3 3-3h23.586L39 12.414V48c0 1.654-1.346 3-3 3z" transform="translate(1057 1350)"/>
            <path d="M4 2c-1.103 0-2 .897-2 2v44c0 1.103.897 2 2 2h32c1.103 0 2-.897 2-2V12.828L27.172 2H4m0-2h24l12 12v36a4 4 0 0 1-4 4H4a4 4 0 0 1-4-4V4a4 4 0 0 1 4-4z" style="fill:#222;stroke:none" transform="translate(1057 1350)"/>
        </g>
        <path id="Line_1502" data-name="Line 1502" class="cls-3" transform="translate(1071 1376)" d="M0 0h12"/>
        <path id="Line_1503" data-name="Line 1503" class="cls-3" transform="rotate(90 -146.5 1223.5)" d="M0 0h12"/>
        <path id="Path_7220" data-name="Path 7220" d="M7761.833-4928.561v12h12" transform="translate(-6677.833 6279.561)" style="fill:none;stroke-width:2px;stroke:#222"/>
    </g>
</svg>
