<svg width="21" height="21" viewBox="0 0 21 21" fill="none" xmlns="http://www.w3.org/2000/svg">
<path d="M9.22206 6.21041C9.15167 6.2767 9.09582 6.35543 9.05772 6.4421C9.01961 6.52878 9 6.62169 9 6.71553C9 6.80936 9.01961 6.90228 9.05772 6.98895C9.09582 7.07563 9.15167 7.15436 9.22206 7.22064L12.1682 10.0006L9.22206 12.7805C9.08008 12.9144 9.00032 13.0961 9.00032 13.2856C9.00032 13.4751 9.08008 13.6567 9.22206 13.7907C9.36403 13.9247 9.55659 13.9999 9.75737 13.9999C9.95816 13.9999 10.1507 13.9247 10.2927 13.7907L13.7779 10.5021C13.8483 10.4358 13.9042 10.3571 13.9423 10.2704C13.9804 10.1837 14 10.0908 14 9.99698C14 9.90315 13.9804 9.81023 13.9423 9.72356C13.9042 9.63688 13.8483 9.55815 13.7779 9.49187L10.2927 6.20325C10.0042 5.93099 9.51819 5.93099 9.22206 6.21041Z" fill="#AD8B3A"/>
</svg>
